<?xml version="1.0" standalone="no"?>
<!DOCTYPE svg PUBLIC "-//W3C//DTD SVG 20010904//EN"
 "http://www.w3.org/TR/2001/REC-SVG-20010904/DTD/svg10.dtd">
<svg version="1.0" xmlns="http://www.w3.org/2000/svg"
 width="512.000000pt" height="512.000000pt" viewBox="0 0 512.000000 512.000000"
 preserveAspectRatio="xMidYMid meet">
<metadata>
Created by potrace 1.14, written by Peter Selinger 2001-2017
</metadata>
<g transform="translate(0.000000,512.000000) scale(0.100000,-0.100000)"
fill="#000000" stroke="none">
<path d="M2399 5116 c-2 -2 -40 -6 -84 -9 -44 -4 -89 -8 -100 -11 -11 -2 -42
-7 -70 -10 -65 -9 -235 -49 -345 -83 -315 -95 -674 -296 -908 -507 -37 -34
-43 -44 -40 -74 4 -44 44 -78 81 -68 14 3 60 34 103 69 209 166 413 287 639
377 86 34 245 86 285 93 14 3 43 10 65 16 64 17 213 41 300 49 178 15 499 6
600 -18 22 -5 55 -10 73 -10 30 0 33 -2 26 -22 -3 -13 -14 -34 -24 -48 -31
-45 -87 -163 -118 -250 -26 -74 -39 -123 -57 -219 -24 -127 -24 -284 1 -456 6
-48 37 -161 60 -228 153 -425 512 -751 945 -858 46 -11 94 -27 106 -34 12 -8
31 -39 42 -70 80 -214 233 -386 430 -484 142 -71 274 -100 434 -94 91 4 98 3
93 -14 -5 -18 -12 -51 -23 -108 -24 -137 -122 -411 -203 -570 -68 -132 -213
-361 -250 -395 -27 -25 -93 -115 -101 -139 -20 -56 36 -110 91 -89 29 11 41
24 154 173 207 273 362 600 441 930 45 189 49 226 32 268 -30 71 -81 100 -172
97 -167 -6 -230 1 -333 36 -209 70 -350 207 -447 435 -54 125 -98 164 -220
193 -305 74 -569 250 -733 493 -222 328 -276 726 -146 1088 27 74 94 213 125
256 72 102 15 231 -111 253 -55 9 -172 27 -210 32 -45 5 -426 14 -431 10z"/>
<path d="M4025 4743 c-11 -2 -47 -13 -80 -23 -33 -10 -94 -28 -135 -41 -114
-34 -152 -53 -198 -98 -47 -47 -74 -95 -90 -161 -35 -145 -35 -254 0 -331 51
-112 135 -165 388 -245 104 -34 230 -8 306 63 76 71 84 88 144 333 32 129 39
177 35 219 -15 155 -143 280 -293 286 -32 1 -66 0 -77 -2z m132 -166 c61 -33
97 -101 87 -167 -13 -88 -85 -343 -103 -369 -26 -36 -83 -63 -130 -63 -52 1
-280 88 -315 120 -53 51 -63 100 -40 219 19 104 33 133 77 167 27 21 157 65
322 110 21 6 75 -3 102 -17z"/>
<path d="M2043 4308 c-24 -12 -41 -51 -35 -85 2 -11 30 -46 62 -77 65 -62 100
-71 138 -36 38 36 30 78 -29 139 -46 46 -85 72 -107 70 -4 0 -17 -5 -29 -11z"/>
<path d="M629 4232 c-79 -90 -95 -110 -169 -216 -248 -358 -404 -777 -447
-1201 -15 -152 -9 -461 11 -616 25 -181 99 -446 179 -634 229 -542 626 -977
1150 -1263 240 -131 622 -253 867 -278 36 -3 69 -9 75 -12 5 -3 104 -7 220 -8
279 -3 475 21 715 87 41 11 89 24 105 28 72 19 280 108 401 170 121 63 299
173 351 217 12 11 54 44 93 74 78 60 100 92 91 129 -9 35 -53 65 -85 57 -13
-3 -62 -37 -108 -74 -277 -226 -671 -419 -973 -478 -11 -2 -54 -10 -95 -18
-230 -46 -613 -56 -799 -21 -9 1 -36 6 -61 10 -265 43 -536 143 -830 308 -184
103 -468 349 -625 541 -291 356 -463 762 -529 1246 -13 101 -16 461 -3 520 3
14 8 56 12 95 4 38 9 73 11 76 2 4 6 24 10 45 3 22 19 89 35 149 86 330 244
642 460 909 74 92 87 122 68 158 -16 31 -28 38 -65 38 -24 0 -40 -9 -65 -38z"/>
<path d="M4815 4226 c-79 -29 -137 -89 -156 -160 -53 -194 144 -357 327 -272
87 40 135 122 130 222 -5 89 -53 161 -133 199 -43 21 -128 26 -168 11z m98
-145 c57 -22 71 -98 24 -141 -49 -47 -137 -3 -137 68 0 24 28 62 54 72 28 11
31 12 59 1z"/>
<path d="M2396 3783 c-66 -64 -77 -86 -64 -126 11 -31 35 -47 73 -47 28 0 106
65 135 113 31 50 3 104 -57 111 -25 4 -39 -5 -87 -51z"/>
<path d="M1345 3743 c-153 -35 -269 -161 -294 -320 -27 -174 58 -337 218 -416
61 -30 73 -32 171 -32 99 0 109 2 168 32 80 42 125 83 166 153 95 159 67 364
-67 487 -101 93 -229 127 -362 96z m180 -153 c46 -17 93 -57 123 -103 23 -37
27 -52 27 -123 0 -72 -3 -85 -30 -129 -111 -180 -382 -143 -441 60 -55 190
136 366 321 295z"/>
<path d="M4389 3596 c-231 -88 -289 -206 -204 -411 76 -184 105 -222 191 -254
56 -21 130 -19 181 5 65 32 225 222 247 295 38 125 -11 216 -176 325 -66 44
-78 49 -138 51 -37 2 -80 -3 -101 -11z m177 -179 c120 -89 125 -118 44 -219
-86 -106 -115 -131 -153 -131 -58 0 -65 9 -138 189 -39 97 -31 119 59 168 89
47 116 46 188 -7z"/>
<path d="M2425 3188 c-146 -33 -222 -205 -149 -339 88 -161 325 -160 406 1 16
30 29 73 30 95 9 156 -135 278 -287 243z m114 -173 c48 -46 12 -137 -54 -137
-31 0 -75 29 -85 57 -12 36 7 81 42 98 38 19 64 14 97 -18z"/>
<path d="M853 2709 c-33 -12 -55 -52 -47 -85 12 -45 83 -177 110 -201 20 -18
29 -20 56 -12 73 20 74 57 8 188 -52 105 -79 128 -127 110z"/>
<path d="M1865 2450 c-35 -38 -24 -75 40 -140 32 -33 68 -61 79 -63 32 -5 75
20 82 48 10 42 -3 69 -60 123 -62 59 -108 69 -141 32z"/>
<path d="M3160 2424 c-95 -49 -110 -64 -110 -109 0 -39 27 -66 66 -67 30 -1
201 80 221 104 22 26 22 66 2 93 -30 37 -77 32 -179 -21z"/>
<path d="M1538 2065 c-198 -39 -309 -258 -223 -439 105 -220 408 -244 542 -43
155 232 -47 537 -319 482z m135 -161 c38 -18 77 -70 86 -116 26 -121 -104
-228 -219 -181 -47 19 -70 41 -92 90 -47 105 32 222 149 223 23 0 57 -7 76
-16z"/>
<path d="M3872 2050 c-12 -12 -22 -33 -22 -48 0 -41 93 -215 123 -230 46 -22
100 14 100 67 0 29 -72 181 -101 214 -21 23 -73 22 -100 -3z"/>
<path d="M3003 1895 c-51 -16 -139 -73 -174 -111 -139 -155 -133 -396 13 -543
98 -98 234 -137 371 -104 74 17 129 48 185 103 211 211 122 568 -164 655 -59
18 -174 18 -231 0z m242 -167 c109 -70 149 -195 97 -309 -72 -161 -286 -194
-402 -61 -107 121 -72 303 73 377 45 23 61 26 122 22 53 -3 80 -10 110 -29z"/>
<path d="M2041 1141 c-97 -49 -121 -75 -113 -117 5 -26 46 -64 69 -64 18 0
192 87 216 107 24 23 22 77 -5 103 -32 30 -62 24 -167 -29z"/>
<path d="M2832 770 c-24 -23 -25 -29 -23 -110 1 -46 5 -59 27 -77 58 -52 117
-10 119 85 1 31 -2 65 -7 74 -25 51 -78 63 -116 28z"/>
</g>
</svg>
